<svg width="379" height="762" viewBox="0 0 379 762" fill="none" xmlns="http://www.w3.org/2000/svg">
<path d="M41.65 5.4H40.278L5.096 74H7.938L16.268 57.83H65.758L74.088 74H76.93L41.65 5.4ZM17.542 55.184L40.964 9.712L64.386 55.184H17.542ZM129.839 35.878H129.741C134.249 32.938 137.287 27.842 137.287 21.962C137.287 12.848 129.839 5.4 120.725 5.4L87.2093 5.49799V74H129.839C139.737 74 148.361 64.788 148.361 54.302C148.361 44.208 140.031 35.878 129.839 35.878ZM89.7573 8.046H120.725C128.467 8.046 134.739 14.318 134.739 21.962C134.739 29.704 128.467 35.976 120.725 35.976H89.7573V8.046ZM129.839 71.452H89.7573V38.622H120.333L129.839 38.426C138.659 38.426 145.715 45.58 145.715 54.302C145.715 63.514 138.365 71.452 129.839 71.452ZM195.454 71.746C174.874 71.746 161.056 59.594 161.056 41.464C161.056 29.41 165.956 19.316 174.58 13.632C183.4 7.75199 194.768 7.36 202.608 8.046C211.918 8.83 220.248 11.966 228.578 17.944L230.146 15.886C221.326 9.614 212.702 6.282 202.804 5.49799C194.474 4.812 182.616 5.204 173.11 11.476C163.8 17.65 158.508 28.528 158.508 41.464C158.508 61.162 173.306 74.294 195.454 74.294C221.522 74.294 229.362 66.846 229.656 66.454L227.892 64.69C227.794 64.788 220.248 71.746 195.454 71.746ZM280.808 5.49799H240.334V74H280.808C299.624 74 315.01 58.614 315.01 39.7C315.01 20.786 299.624 5.49799 280.808 5.49799ZM280.808 71.452H242.882V8.046H280.808C298.252 8.046 312.462 22.256 312.462 39.7C312.462 57.144 298.252 71.452 280.808 71.452ZM10.192 162.806V136.64H59.192V131.544H10.192V104.692H70.756V99.596H5.096V168H70.756V162.806H10.192ZM146.94 104.692V99.596H81.0843V167.902H86.1803V137.62H140.962V132.524H86.1803V104.692H146.94ZM204.404 139.384H223.318V157.318C220.966 158.886 212.734 163.198 193.918 163.198C174.71 163.198 162.264 152.32 162.264 135.464C162.264 124.39 166.772 115.08 174.612 109.886C182.844 104.398 193.33 104.006 200.68 104.692C209.402 105.378 217.144 108.416 224.984 114.002L227.924 109.788C219.3 103.614 210.774 100.38 201.072 99.596C192.938 98.91 181.276 99.4 171.77 105.574C162.46 111.748 157.168 122.626 157.168 135.464C157.168 155.064 171.868 168.294 193.918 168.294C219.496 168.294 227.336 160.748 227.728 160.356L228.414 159.67V134.288H204.404V139.384ZM289.765 99.498V132.818H243.803V99.498H238.707V168H243.803V138.012H289.765V168H294.861V99.498H289.765ZM310.126 168V99.498H305.03V168H310.126ZM366.01 99.498V141.344C366.01 151.83 357.484 160.356 346.998 160.356C336.512 160.356 327.986 151.83 327.986 141.344H320.342C320.342 156.044 332.298 168.098 346.998 168.098C361.698 168.098 373.654 156.044 373.654 141.344V99.498H366.01ZM21.56 228.974L20.776 226.818L59.094 193.694H47.334L12.74 223.682V193.694H5.096V262.196H12.74V227.308L15.092 233.58L48.804 262.196H60.662L21.56 228.974ZM78.5838 254.454V193.498H70.9398V262.098H137.482V254.454H78.5838ZM213.057 193.498L185.421 254.062L157.883 193.498H147.789V262.098H155.433V206.728L180.717 262.098H190.223L215.409 206.728V262.098H223.151V193.498H213.057ZM286.462 193.498V248.574L243.93 193.498H233.444V262.098H241.088V202.416L287.246 262.098H294.106V193.498H286.462ZM338.954 193.106C319.844 193.106 304.36 208.59 304.36 227.7C304.36 246.712 319.844 262.294 338.954 262.294C357.966 262.294 373.548 246.712 373.548 227.7C373.548 208.59 357.966 193.106 338.954 193.106ZM338.954 252.004C325.528 252.004 314.552 241.126 314.552 227.7C314.552 214.274 325.528 203.298 338.954 203.298C352.38 203.298 363.258 214.274 363.258 227.7C363.258 241.126 352.38 252.004 338.954 252.004ZM38.122 287.4H15.092V287.498H5.096V356H15.288V334.244H38.122C51.058 334.244 61.544 323.758 61.544 310.822C61.544 297.984 51.058 287.4 38.122 287.4ZM38.122 324.052H15.288V297.69H38.122C45.374 297.69 51.254 303.57 51.254 310.822C51.254 318.074 45.374 324.052 38.122 324.052ZM131.387 345.71L131.191 345.612C137.169 339.34 140.795 331.01 140.795 321.7C140.795 302.688 125.311 287.106 106.201 287.106C87.1894 287.106 71.7054 302.688 71.7054 321.7C71.7054 340.81 87.1894 356.294 106.201 356.294C112.375 356.294 118.157 354.726 123.155 351.884L126.781 356H149.713V345.71H131.387ZM124.331 337.968L114.531 326.894L106.887 333.754L116.001 343.946C113.061 345.318 109.729 346.102 106.201 346.102C92.7754 346.102 81.8974 335.126 81.8974 321.7C81.8974 308.274 92.7754 297.396 106.201 297.396C119.627 297.396 130.603 308.274 130.603 321.7C130.603 327.972 128.251 333.656 124.331 337.968ZM210.117 334.538V331.99C219.133 328.952 225.699 320.426 225.699 310.332C225.699 297.69 215.409 287.4 202.669 287.4L160.039 287.498V355.902H170.231V333.264H199.925V338.752L217.271 355.902H231.775L210.117 334.538ZM170.231 323.072V297.69L202.767 297.592C209.725 297.592 215.409 303.374 215.409 310.332C215.409 317.388 209.725 323.072 202.767 323.072H170.231ZM319.185 329.834C315.363 315.428 299.977 314.742 285.473 315.918C272.341 317.094 262.247 315.624 258.327 312.096C257.347 311.116 256.857 310.136 256.857 308.764C256.857 307.392 257.347 306.314 258.425 305.236C262.443 301.218 272.733 299.16 280.965 299.356C298.899 299.454 310.561 305.628 310.757 305.628L316.833 294.358C316.245 294.064 302.427 286.714 281.161 286.518C277.339 286.518 258.719 286.812 249.409 296.22C245.881 299.65 244.019 304.06 244.117 308.96C244.117 313.86 246.077 318.172 249.703 321.504C258.327 329.344 274.497 329.736 286.551 328.756C305.269 327.09 306.347 331.206 306.837 333.166C307.229 334.538 307.033 335.812 306.249 336.988C304.485 339.732 299.879 341.888 293.607 342.868C263.521 347.768 251.859 335.91 251.467 335.518L241.961 344.044C242.451 344.632 253.721 356.784 279.985 356.784C284.689 356.784 289.883 356.392 295.665 355.51C308.503 353.452 314.383 348.062 317.029 343.946C319.773 339.732 320.557 334.734 319.185 329.834ZM5.096 381.4V394.238H22.344V450H35.182V394.238H52.43V381.4H5.096ZM115.534 381.4V421.972C115.534 428.93 112.104 437.26 95.5416 437.26C78.8816 437.26 75.3536 428.93 75.3536 421.972V381.4H62.6136V421.972C62.6136 442.65 79.5676 450 95.5416 450C115.828 450 128.372 439.22 128.372 421.972V381.4H115.534ZM209.358 381.4L181.232 433.732L153.106 381.4H138.602L175.45 450H187.014L223.862 381.4H209.358ZM325.844 381.498L313.104 425.402L297.228 381.498H278.608L262.732 425.402L249.992 381.498H234.018L253.912 450H270.18L287.918 400.902L305.656 450H321.924L341.818 381.498H325.844ZM62.034 509.896L60.858 509.406L62.034 508.818L95.55 475.498H73.794L50.666 498.528L27.538 475.498H5.782L39.2 508.916L40.376 509.406L39.2 509.896L5.096 544H26.754L50.666 520.284L74.48 544H96.236L62.034 509.896ZM159.167 475.498L143.683 495.196H141.527L126.043 475.498H106.541L134.961 511.562V544H150.347V511.562L178.767 475.498H159.167ZM255.775 475.596H189.037V490.884H234.999L189.037 531.848V543.902H255.775V528.614H215.791L255.775 492.942V475.596Z" fill="white"/>
<path d="M5.096 605.076L6.958 606.644L29.498 582.634V648H32.046V580.086H28.42L5.096 605.076ZM92.7968 612.426C97.5988 607.33 100.049 603.116 100.049 599.686C100.049 595.766 98.8728 592.336 96.4228 589.298C93.9728 586.358 90.8368 584.104 87.0148 582.438C83.0948 580.87 79.0768 580.086 74.8628 580.086C68.0028 580.086 62.1228 581.164 57.4188 583.418C52.6168 585.574 49.0888 588.22 46.8348 591.258C44.4828 594.296 43.3068 597.138 43.3068 599.686V600.568H45.7568V599.588C45.7568 597.628 46.7368 595.374 48.6968 592.63C50.7548 589.984 53.8908 587.632 58.2028 585.574C62.6128 583.516 68.1988 582.536 74.8628 582.536C78.6848 582.536 82.4088 583.222 85.8388 584.594C89.3668 585.966 92.2088 588.024 94.3648 590.67C96.5208 593.218 97.5988 596.256 97.5988 599.686C97.5988 603.214 94.3648 607.918 87.8968 613.7C81.3308 619.482 73.7848 625.068 65.0628 630.654C56.4388 636.24 48.9908 640.552 42.8168 643.688L42.2288 644.08V648L106.321 647.902V645.648L44.5808 645.55C46.4428 644.57 50.1668 642.414 55.5568 639.18C61.0448 635.946 66.4348 632.516 71.8248 628.988C80.9388 623.108 87.8968 617.522 92.7968 612.426ZM144.618 608.408L171.96 582.732V580.086H123.646V582.536H168.04L141.874 608.016V610.858L161.768 610.76C166.276 610.76 169.706 611.446 172.156 612.818C174.508 614.19 176.174 616.052 177.154 618.6C178.036 621.05 178.428 624.284 178.428 628.106C178.428 632.614 177.35 636.142 175.194 638.592C173.038 641.14 169.804 643.002 165.59 643.982C161.376 645.06 155.888 645.648 149.028 645.648C142.756 645.648 137.464 645.06 132.956 643.884C128.546 642.708 125.214 640.944 122.862 638.592C120.216 636.044 118.942 632.81 118.942 628.792V628.498H116.59V628.792C116.59 633.398 118.06 637.22 121.098 640.356C124.234 643.394 128.252 645.354 133.054 646.432C137.954 647.51 143.344 648.098 149.126 648.098C157.652 648.098 164.316 647.118 169.02 645.354C173.724 643.59 176.86 641.336 178.526 638.396C180.192 635.554 180.976 632.124 180.976 628.106C180.976 624.284 180.486 620.952 179.604 618.11C178.624 615.268 176.762 612.916 173.92 611.054C171.176 609.29 167.06 608.31 161.768 608.31L144.618 608.408ZM237.789 580.086L191.239 627.812V629.87H238.769V648H241.317L241.121 580.086H237.789ZM238.769 627.322H195.061L238.573 582.634L238.769 627.322ZM255.354 609.78L255.256 582.536H306.706V580.086H252.708L252.904 612.23L297.102 612.132C299.552 612.132 301.316 612.23 302.688 612.426C304.06 612.72 305.138 613.112 306.118 613.7C307 614.386 308.176 615.366 309.548 616.738C312.292 619.384 313.566 623.206 313.566 628.008C313.566 632.712 311.9 636.436 308.47 639.278C305.922 641.434 302.492 643.002 298.18 644.08C293.966 645.06 289.262 645.648 284.068 645.648C277.796 645.648 272.406 645.06 267.996 643.884C263.586 642.708 260.254 640.944 257.902 638.592C255.256 636.044 253.982 632.712 253.982 628.694V628.498H251.532V628.694C251.532 633.398 253.002 637.22 256.138 640.258C261.332 645.452 270.642 648 284.068 648C289.164 648 294.064 647.51 298.67 646.432C303.276 645.354 307 643.688 310.038 641.238C311.998 639.67 313.468 637.808 314.546 635.652C315.624 633.398 316.114 630.85 316.114 628.008C316.114 622.716 314.546 618.404 311.312 614.974C309.646 613.21 307.686 611.838 305.236 610.956C302.786 610.074 300.042 609.584 297.102 609.584L255.354 609.78ZM26.95 698.978C23.912 699.468 21.168 700.154 18.718 701.232V694.666C18.718 693.98 19.6 693.098 21.266 691.824C22.932 690.648 25.186 689.57 28.028 688.688C30.87 687.806 34.006 687.316 37.436 687.316C40.67 687.316 43.61 687.806 46.256 688.688C48.902 689.57 51.058 690.55 52.724 691.726C54.292 692.902 55.174 693.882 55.174 694.666V698.292H68.894V694.666C68.894 690.942 67.522 687.512 64.68 684.278C61.838 681.044 57.918 678.398 53.116 676.536C48.216 674.576 43.022 673.694 37.436 673.694C31.752 673.694 26.362 674.576 21.364 676.536C16.366 678.398 12.446 681.044 9.506 684.278C6.566 687.512 5.096 690.942 5.096 694.666V720.146C5.096 726.222 7.448 731.22 12.25 735.434C17.052 739.55 25.48 741.608 37.632 741.608C46.452 741.608 53.116 740.334 57.82 737.786C62.622 735.336 65.758 732.396 67.326 729.162C68.796 725.928 69.678 722.792 69.678 719.656C69.678 713.678 67.228 708.582 62.426 704.466C57.624 700.252 49.196 698.194 36.946 698.194C33.32 698.194 29.988 698.488 26.95 698.978ZM50.078 726.222C46.256 727.3 42.042 727.79 37.632 727.79C31.36 727.79 26.656 727.202 23.52 725.928C20.384 724.556 18.816 722.694 18.718 720.048C18.816 716.912 20.776 714.756 24.598 713.678C28.42 712.6 32.536 712.012 36.946 712.012C43.218 712.012 48.02 712.698 51.156 713.972C54.292 715.246 55.958 717.206 55.958 719.754C55.958 722.89 53.998 725.046 50.078 726.222ZM148.242 689.276V673.694H82.7778V688.1H129.524L79.9358 742.294H99.6338L148.242 689.276ZM172.916 676.928C168.8 679.182 166.056 681.73 164.684 684.572C163.41 687.414 162.724 690.256 162.626 693C162.626 697.312 163.998 701.036 166.742 704.172C163.508 706.524 161.254 709.17 160.078 712.11C158.902 715.05 158.412 717.696 158.412 720.146C158.412 726.124 160.764 731.22 165.566 735.434C170.368 739.55 178.796 741.608 190.948 741.608C199.768 741.608 206.432 740.334 211.136 737.786C215.938 735.336 219.074 732.396 220.642 729.162C222.112 725.928 222.994 722.792 222.994 719.656C222.994 715.834 222.21 712.796 220.838 710.64C219.466 708.484 217.31 706.132 214.566 703.78C216.134 701.918 217.212 699.958 217.8 697.9C218.388 695.94 218.682 694.176 218.682 692.608C218.682 687.316 216.624 682.808 212.41 679.182C208.294 675.458 200.944 673.694 190.36 673.694C182.814 673.694 177.032 674.772 172.916 676.928ZM176.836 725.928C173.7 724.556 172.132 722.694 172.132 720.146C172.132 716.912 174.092 714.756 177.914 713.678C181.736 712.502 185.95 712.012 190.262 712.012C195.848 712.012 200.454 712.502 203.982 713.678C207.51 714.756 209.274 716.814 209.274 719.754C209.274 722.89 207.314 725.046 203.394 726.124C199.572 727.3 195.358 727.79 190.948 727.79C184.676 727.79 179.972 727.202 176.836 725.928ZM200.454 688.59C203.394 689.276 204.864 690.648 204.962 692.706C204.864 694.862 203.296 696.332 200.062 697.116C196.828 697.802 193.79 698.194 190.948 698.194C186.93 698.194 183.5 697.802 180.658 697.018C177.816 696.234 176.444 694.96 176.444 693C176.444 690.746 178.012 689.178 181.148 688.492C184.382 687.806 187.42 687.414 190.36 687.414C194.182 687.414 197.514 687.806 200.454 688.59ZM275.882 716.324C278.92 715.834 281.664 715.05 284.212 714.07V720.636C284.212 721.322 283.33 722.204 281.664 723.38C279.998 724.654 277.744 725.634 274.804 726.614C271.962 727.496 268.826 727.888 265.396 727.888C262.26 727.888 259.32 727.496 256.674 726.614C253.93 725.732 251.774 724.752 250.206 723.576C248.54 722.4 247.756 721.42 247.756 720.636V716.912H233.938V720.636C233.938 724.36 235.408 727.79 238.25 731.024C241.092 734.258 244.914 736.806 249.814 738.766C254.616 740.628 259.908 741.608 265.396 741.608C271.178 741.608 276.568 740.628 281.566 738.766C286.564 736.806 290.484 734.258 293.424 731.024C296.364 727.79 297.834 724.36 297.834 720.636V695.156C297.834 689.08 295.482 683.984 290.68 679.868C285.878 675.752 277.45 673.694 265.2 673.694C256.478 673.694 249.814 674.87 245.012 677.418C240.308 679.966 237.172 682.808 235.604 686.042C234.036 689.276 233.252 692.51 233.252 695.548C233.252 701.624 235.702 706.72 240.504 710.836C245.306 714.952 253.734 717.01 265.886 717.01C269.512 717.01 272.844 716.814 275.882 716.324ZM252.852 689.08C256.674 688.002 260.79 687.414 265.2 687.414C271.472 687.414 276.176 688.1 279.41 689.374C282.546 690.648 284.114 692.608 284.212 695.156C284.114 698.39 282.154 700.546 278.332 701.624C274.412 702.702 270.296 703.29 265.886 703.29C259.614 703.29 254.91 702.604 251.774 701.33C248.54 700.056 246.972 698.096 246.972 695.45C246.972 692.314 248.932 690.158 252.852 689.08Z" fill="white"/>
</svg>
