<svg width="810" height="498" viewBox="0 0 810 498" fill="none" xmlns="http://www.w3.org/2000/svg">
<path d="M144.109 83.598C137.016 57.302 109.855 55.918 84.251 58.167C59.166 60.243 45.326 56.61 40.655 52.285C39.444 51.247 38.925 50.382 38.925 48.825C38.925 47.441 39.271 46.23 40.828 44.673C46.883 38.618 64.01 35.504 76.985 35.504C106.395 35.85 125.598 45.884 125.771 45.884L138.746 22.183C137.708 21.491 113.834 8.86199 77.158 8.516C70.757 8.34299 38.233 9.03499 21.625 25.643C15.224 32.044 11.764 40.175 11.937 49.171C11.937 58.167 15.57 66.298 22.317 72.353C34.6 83.425 56.052 87.75 86.5 85.155C115.737 82.733 117.294 88.442 117.986 90.691C118.505 92.767 117.813 93.978 117.294 95.016C116.429 96.4 112.104 101.244 97.745 103.666C48.613 111.624 29.756 92.594 29.237 92.075L8.996 110.067C9.861 111.105 29.583 132.557 75.428 132.557C83.386 132.557 92.382 132.038 102.07 130.308C124.733 126.675 135.286 117.16 140.13 109.721C145.147 101.936 146.531 92.767 144.109 83.598ZM163.412 9.89999V32.563H193.86V131H216.523V32.563H246.971V9.89999H163.412ZM344.701 9.89999H327.055L264.948 130.827H285.189L296.434 109.029H375.495L386.74 130.827H406.981L344.701 9.89999ZM305.776 91.037L335.878 32.217L366.153 91.037H305.776ZM438.602 131V10.073H425.108V131H438.602ZM539.049 90.864V88.269C556.868 84.463 570.189 68.72 570.189 49.863C570.189 28.065 552.37 10.246 530.745 10.246L456.701 10.419V131.173H465.697V89.307H530.053V94.67L566.729 131.173H579.704L539.049 90.864ZM465.697 80.311V19.415H530.745C547.526 19.415 561.193 32.909 561.193 49.863C561.193 66.644 547.526 80.311 530.745 80.311H465.697ZM738.246 90.345C733.402 72.699 716.621 66.644 680.118 69.758C649.324 72.353 626.661 68.547 616.108 59.032C611.783 55.053 609.534 50.036 609.361 44.327C609.361 38.445 611.61 33.428 615.762 29.103C628.218 16.647 655.725 13.533 670.084 13.706C710.22 14.052 736.17 27.892 736.343 28.065L738.592 24.086C737.554 23.567 711.431 9.554 670.257 9.20799C651.4 8.86199 625.277 13.36 612.648 25.989C607.458 31.006 604.863 37.234 604.863 44.327C605.036 51.42 607.631 57.475 612.994 62.319C624.585 72.699 648.459 77.024 680.464 74.256C720.081 70.969 730.461 78.754 733.748 91.556C735.305 97.438 734.44 103.147 731.326 108.164C727.52 114.046 718.524 121.831 697.764 125.118C628.737 136.19 601.403 106.78 601.057 106.434L597.77 109.375C598.635 110.586 618.703 132.211 667.489 132.211C676.831 132.211 687.038 131.346 698.456 129.616C720.946 125.983 730.807 117.333 735.132 110.586C738.938 104.531 740.149 97.611 738.246 90.345Z" fill="black"/>
<path d="M17.992 287.831V241.64H104.492V232.644H17.992V185.242H124.906V176.246H8.996V297H124.906V287.831H17.992ZM224.795 237.142L222.027 235.758L224.795 234.374L283.615 175.9H264.412L213.896 226.07L163.553 175.9H144.35L203.17 234.547L205.765 235.758L203.17 236.969L143.139 296.827H162.169L213.896 245.273L265.623 296.827H284.826L224.795 237.142ZM325.451 297V176.073H302.961V297H325.451ZM343.677 176.073V203.234H371.876V297H399.037V203.234H427.236V176.073H343.677Z" fill="black"/>
<path d="M171.097 342.073L148.607 419.577L120.581 342.073H87.711L59.685 419.577L37.195 342.073H8.996L44.115 463H72.833L104.146 376.327L135.459 463H164.177L199.296 342.073H171.097ZM278.371 341.554C244.809 341.554 217.475 368.888 217.475 402.45C217.475 436.185 244.809 463.519 278.371 463.519C311.933 463.519 339.267 436.185 339.267 402.45C339.267 368.888 311.933 341.554 278.371 341.554ZM278.371 440.856C257.265 440.856 239.965 423.729 239.965 402.45C239.965 381.344 257.265 364.217 278.371 364.217C299.477 364.217 316.777 381.344 316.777 402.45C316.777 423.729 299.477 440.856 278.371 440.856ZM472.233 341.727L426.042 443.105L379.851 341.727H357.361V462.827H375.353V375.462L415.143 462.827H436.941L476.731 375.462V462.827H494.896V341.727H472.233ZM521.956 453.831V407.64H608.456V398.644H521.956V351.242H628.87V342.246H512.96V463H628.87V453.831H521.956ZM739.657 341.9V452.447L654.195 341.9H647.102V463H651.6V345.706L742.079 463H744.155V341.9H739.657Z" fill="black"/>
</svg>
