<svg width="722" height="207" viewBox="0 0 722 207" fill="none" xmlns="http://www.w3.org/2000/svg">
<rect x="0.5" y="0.5" width="103" height="103" stroke="black"/>
<rect x="0.5" y="103.5" width="103" height="103" stroke="black"/>
<rect x="206.5" y="0.5" width="103" height="103" stroke="black"/>
<rect x="206.5" y="103.5" width="103" height="103" stroke="black"/>
<rect x="412.5" y="0.5" width="103" height="103" stroke="black"/>
<rect x="412.5" y="103.5" width="103" height="103" stroke="black"/>
<rect x="103.5" y="0.5" width="103" height="103" stroke="black"/>
<rect x="103.5" y="103.5" width="103" height="103" stroke="black"/>
<rect x="309.5" y="0.5" width="103" height="103" stroke="black"/>
<rect x="309.5" y="103.5" width="103" height="103" stroke="black"/>
<rect x="515.5" y="0.5" width="103" height="103" stroke="black"/>
<rect x="515.5" y="103.5" width="103" height="103" stroke="black"/>
<rect x="618.5" y="0.5" width="103" height="103" stroke="black"/>
<path d="M51.8295 58.816L51.9025 22.973H50.0045L50.0775 58.816H51.8295ZM50.9535 70.35C49.9315 70.35 49.1285 71.153 49.1285 72.175C49.1285 73.197 49.9315 74 50.9535 74C51.9755 74 52.7785 73.197 52.7785 72.175C52.7785 71.153 51.9755 70.35 50.9535 70.35Z" fill="black"/>
<path d="M66.8752 136.558H53.2972L62.8602 126.922L61.5462 125.608L51.9102 135.171V121.593H50.0122V135.171L40.3762 125.608L39.0622 126.922L48.6982 136.558H35.1202V138.456H48.6982L39.0622 148.019L40.3762 149.406L50.0122 139.77V153.348H51.9102V139.77L61.5462 149.406L62.8602 148.019L53.2972 138.456H66.8752V136.558Z" fill="black"/>
<path d="M154.452 25.309C139.195 25.309 126.858 36.259 126.858 49.691C126.858 63.123 139.195 74 154.452 74C155.401 74 156.423 74 157.372 73.927L157.08 70.131C156.204 70.204 155.328 70.204 154.452 70.204C141.312 70.204 130.654 61.006 130.654 49.691C130.654 38.376 141.312 29.105 154.452 29.105C167.592 29.105 178.25 38.376 178.25 49.691C178.25 51.37 178.031 53.122 177.52 54.801C177.447 54.874 175.257 63.05 169.636 62.466C167.665 62.32 166.278 61.663 165.402 60.568C164.088 58.816 164.088 56.188 164.38 54.363C164.891 51.37 166.278 46.041 167.446 44.435C167.446 44.435 164.161 42.464 164.088 42.61C162.482 41.077 160 39.471 156.496 39.252C153.941 39.106 147.663 39.544 144.159 46.406C142.407 49.91 142.48 53.341 144.305 55.896C145.984 58.232 148.977 59.473 152.627 59.473C153.43 59.473 154.306 59.4 155.255 59.327C156.934 59.035 158.759 58.67 160.511 57.867C160.73 59.838 161.387 61.59 162.409 62.904C163.942 64.875 166.278 65.97 169.271 66.262C178.177 67.138 181.097 56.261 181.17 55.823C181.754 53.852 182.046 51.735 182.046 49.691C182.046 36.259 169.709 25.309 154.452 25.309ZM154.671 55.531C151.313 56.042 148.612 55.312 147.371 53.633C146.422 52.246 146.422 50.348 147.59 48.158C149.926 43.413 154.014 42.902 156.277 43.048C159.635 43.267 161.606 45.384 162.409 46.479C161.533 49.18 160.876 52.173 160.657 53.341C159.343 54.436 157.518 55.093 154.671 55.531Z" fill="black"/>
<path d="M150.117 120.863L147.489 118.162C136.977 128.309 123.399 154.151 147.416 179.19L150.19 176.562C122.815 148.019 149.022 121.958 150.117 120.863ZM160.497 118.162L157.796 120.863C158.964 121.958 185.098 148.019 157.796 176.562L160.497 179.19C184.514 154.151 171.009 128.309 160.497 118.162Z" fill="black"/>
<path d="M283.847 42.172V36.478H274.503L279.029 23.046H273.043L268.444 36.478H254.793L259.392 23.046H253.333L248.734 36.478H231.141V42.172H246.836L242.456 55.02H231.141V60.714H240.485L235.959 74.146H241.945L246.544 60.714H260.195L255.596 74.146H261.655L266.254 60.714H283.847V55.02H268.152L272.532 42.172H283.847ZM262.166 55.02H248.515L252.895 42.172H266.473L262.166 55.02Z" fill="black"/>
<path d="M275.807 148.968H258.433V131.594H256.462V148.968H239.161V150.939H256.462V168.24H258.433V150.939H275.807V148.968Z" fill="black"/>
<path d="M386.656 52.173C384.101 42.391 373.443 41.953 363.442 42.829V29.616C374.538 30.346 381.619 33.996 381.692 34.069L383.517 30.711L385.342 27.353C384.977 27.134 376.582 22.681 363.442 21.951V17.133H355.85V22.024C350.667 22.462 342.783 23.922 338.184 28.521C335.848 30.857 334.607 33.777 334.607 37.062C334.68 40.347 335.994 43.267 338.403 45.457C342.564 49.253 349.28 50.494 355.85 50.64V62.685C343.805 61.809 338.841 56.699 338.622 56.48L332.928 61.517C333.22 61.955 340.009 69.328 355.85 70.277V75.095H363.442V70.277C365.632 70.131 367.968 69.912 370.523 69.474C379.356 68.087 383.371 64.437 385.196 61.59C387.021 58.816 387.532 55.458 386.656 52.173ZM343.586 39.836C342.637 39.033 342.272 38.157 342.272 36.989C342.272 35.748 342.637 34.799 343.586 33.923C345.922 31.514 351.032 30.127 355.85 29.689V43.048C350.01 42.829 345.63 41.734 343.586 39.836ZM378.845 57.429C378.042 58.67 375.706 60.933 369.282 61.955C367.165 62.32 365.267 62.466 363.442 62.612V50.421C363.661 50.421 363.88 50.421 364.026 50.421C377.969 49.253 378.845 52.392 379.283 54.144C379.648 55.312 379.429 56.48 378.845 57.429Z" fill="black"/>
<path d="M361.9 157.874L353.067 173.934L357.52 176.489L366.864 160.721L361.9 157.874ZM361.243 146.632C363.214 146.632 364.82 145.026 364.82 143.055C364.82 141.084 363.214 139.478 361.243 139.478C359.272 139.478 357.666 141.084 357.666 143.055C357.666 145.026 359.272 146.632 361.243 146.632Z" fill="black"/>
<path d="M487.603 29.47L480.449 22.9L439.204 67.43L446.285 74L487.603 29.47ZM447.891 52.1C455.118 52.1 460.958 45.53 460.958 37.5C460.958 29.47 455.118 22.9 447.891 22.9C440.664 22.9 434.824 29.47 434.824 37.5C434.824 45.53 440.664 52.1 447.891 52.1ZM447.891 32.463C449.789 32.463 451.395 34.799 451.395 37.5C451.395 40.201 449.789 42.61 447.891 42.61C445.993 42.61 444.314 40.201 444.314 37.5C444.314 34.799 445.993 32.463 447.891 32.463ZM479.135 44.873C471.908 44.873 465.995 51.37 465.995 59.473C465.995 67.503 471.908 74 479.135 74C486.289 74 492.202 67.503 492.202 59.473C492.202 51.37 486.289 44.873 479.135 44.873ZM479.135 64.51C477.237 64.51 475.558 62.174 475.558 59.473C475.558 56.772 477.237 54.363 479.135 54.363C481.033 54.363 482.639 56.772 482.639 59.473C482.639 62.174 481.033 64.51 479.135 64.51Z" fill="black"/>
<path d="M459.164 141.449L454.419 133.2L425.876 149.625L454.419 166.05L459.164 157.801L445.002 149.625L459.164 141.449ZM471.541 133.2L466.796 141.449L480.958 149.625L466.796 157.801L471.541 166.05L500.084 149.625L471.541 133.2Z" fill="black"/>
<path d="M565.981 19.688L546.271 45.092L555.25 52.1L565.981 38.376L576.712 52.1L585.691 45.092L565.981 19.688Z" fill="black"/>
<path d="M558.872 164.663C555.368 164.663 552.521 167.51 552.521 170.941C552.521 174.445 555.368 177.292 558.872 177.292C562.376 177.292 565.223 174.445 565.223 170.941C565.223 167.51 562.376 164.663 558.872 164.663ZM574.348 125.9H548.944V137.288H571.574V138.31L552.813 149.771V160.21H564.201V156.195L577.341 148.165C580.845 146.267 583.035 142.617 583.035 138.602V134.587C583.035 129.769 579.093 125.9 574.348 125.9Z" fill="black"/>
<path d="M702.914 39.325L684.372 53.56L678.751 51.005C684.737 49.326 689.19 43.851 689.19 37.281C689.19 29.397 682.839 22.973 674.955 22.973H656.121C648.31 22.973 641.886 29.397 641.886 37.281C641.886 39.398 642.397 41.442 643.2 43.34C638.893 46.406 636.119 51.443 636.119 57.137C636.119 66.554 643.711 74.219 653.128 74.219H676.269L685.832 66.846L702.914 74.657V62.028L696.125 58.962L702.914 53.779V39.325ZM672.4 62.758H653.128C650.062 62.758 647.507 60.203 647.507 57.137C647.507 54.29 649.697 51.954 652.544 51.589L674.079 61.444L672.4 62.758ZM674.955 40.128H656.121C654.588 40.128 653.347 38.814 653.347 37.281C653.347 35.748 654.588 34.434 656.121 34.434H674.955C676.488 34.434 677.802 35.748 677.802 37.281C677.802 38.814 676.488 40.128 674.955 40.128Z" fill="black"/>
</svg>
