<svg width="548" height="497" viewBox="0 0 548 497" fill="none" xmlns="http://www.w3.org/2000/svg">
<path d="M69.948 257H75.308V69.4H71.02C53.332 84.944 32.964 98.344 10.184 101.828V106.92C32.696 103.436 52.796 92.18 69.948 76.368V257ZM134.01 110.94L138.566 113.352C152.234 86.552 180.91 69.132 221.11 69.132C261.578 69.132 298.83 87.624 298.83 118.712C298.83 147.12 267.206 159.18 224.594 175.26C170.726 195.628 133.742 222.428 126.774 252.712V257H309.282V251.908H133.206C139.906 223.768 179.302 198.04 225.934 180.62C272.03 163.468 304.458 149.264 304.458 118.712C304.458 84.676 264.526 64.04 221.11 64.04C178.498 64.04 147.41 83.336 134.01 110.94ZM343.84 212.78L339.016 215.192C351.076 242.26 380.288 262.36 432.548 262.36C489.096 262.36 527.152 239.312 527.152 205.276C527.152 171.24 489.9 158.108 461.224 155.428C489.364 154.356 519.916 139.348 519.916 110.94C519.916 81.996 479.18 64.04 432.548 64.04C388.864 64.04 358.312 79.852 345.716 105.044L350.54 107.456C362.868 83.336 391.008 69.132 432.548 69.132C476.232 69.132 514.288 84.944 514.288 110.94C514.288 142.028 476.232 153.284 432.548 153.284H411.108V158.376H432.548C486.148 158.376 521.524 174.188 521.524 205.276C521.524 236.364 486.148 257.268 432.548 257.268C382.432 257.268 355.632 238.776 343.84 212.78Z" fill="white"/>
<path d="M182.24 393.62H158.87V318H111.37L14.28 400.46V428.96H107.57V451H158.87V428.96H182.24V393.62ZM74.13 393.62L107.57 364.93V393.62H74.13ZM214.72 402.93L190.59 434.47C211.3 448.15 236 455.56 268.68 455.56C327.39 455.56 346.77 432.57 346.77 407.11C346.77 375 316.18 361.32 289.2 361.32C271.91 361.32 255.57 366.07 244.74 373.67L247.97 354.1H332.9V318H208.26L196.86 390.01L233.72 403.12C244.74 397.99 258.42 396.28 268.68 396.28C283.5 396.28 292.62 399.13 292.62 406.73C292.62 414.33 283.5 416.61 268.68 416.61C245.88 416.61 225.36 409.58 214.72 402.93ZM454.341 361.51C441.231 361.51 425.081 363.79 412.351 370.82C417.101 353.15 432.111 348.59 449.591 348.59C464.601 348.59 480.371 353.72 491.771 361.89L517.421 334.91C501.461 322.18 476.191 313.44 443.131 313.44C390.691 313.44 357.251 340.23 357.251 384.5C357.251 428.77 390.691 455.56 443.131 455.56C493.861 455.56 520.081 433.9 520.081 405.4C520.081 370.63 480.371 361.51 454.341 361.51ZM443.131 420.41C429.071 420.41 416.911 416.23 412.541 400.08C421.661 395.71 432.871 393.43 443.131 393.43C457.571 393.43 466.691 397.42 466.691 406.92C466.691 416.42 457.381 420.41 443.131 420.41Z" fill="white"/>
</svg>
