<svg width="498" height="150" viewBox="0 0 498 150" fill="none" xmlns="http://www.w3.org/2000/svg">
<path d="M94.4355 17.1H41.9074V28.021H61.2704V64H74.9384V28.021H94.4355V17.1ZM128.634 25.542C122.001 25.542 116.507 28.155 113.358 32.778V27.686V14.42H100.159V26.882V64H113.358V42.024C116.172 37.468 119.924 35.391 124.279 35.391C129.304 35.391 132.051 38.205 132.051 43.029V64H145.25V42.158C145.25 32.443 139.421 25.542 128.634 25.542ZM164.524 48.255H198.426C198.694 47.518 198.761 46.647 198.761 45.173C198.761 32.041 189.247 25.341 175.847 25.341C160.973 25.341 151.928 32.979 151.928 45.441C151.928 57.903 161.107 65.541 176.852 65.541C185.294 65.541 192.128 63.665 197.421 58.975L190.721 51.94C187.036 54.754 183.485 56.161 177.589 56.161C170.085 56.161 165.596 53.883 164.524 48.255ZM175.981 34.587C181.609 34.587 185.16 36.664 186.567 41.019L164.859 41.153C166.333 36.664 170.286 34.587 175.981 34.587ZM264.829 64H279.368L255.114 17.1H240.173L215.919 64H230.257L234.679 55.022H260.407L264.829 64ZM239.369 45.307L247.543 28.691L255.65 45.307H239.369ZM296.954 64V46.111C298.897 40.014 304.592 36.999 312.498 36.999V26.011C305.865 26.011 300.036 28.557 296.954 33.783V26.882H283.755V64H296.954ZM347.112 53.146C344.968 54.151 342.891 54.888 340.68 54.888C337.129 54.888 334.65 52.945 334.65 49.595V36.195H348.921V26.882H334.65V18.239H321.451V26.882H314.885V36.195H321.451V51.806C321.451 60.784 327.816 65.407 336.258 65.407C340.747 65.407 345.973 64.067 349.323 61.789L347.112 53.146ZM394.849 65.541C409.723 65.541 419.103 57.836 419.103 45.441C419.103 32.979 409.723 25.408 394.849 25.408C379.908 25.408 370.528 32.979 370.528 45.441C370.528 57.836 379.908 65.541 394.849 65.541ZM394.849 55.357C388.082 55.357 383.191 51.94 383.191 45.441C383.191 38.875 388.082 35.525 394.849 35.525C401.616 35.525 406.507 38.875 406.507 45.441C406.507 51.94 401.616 55.357 394.849 55.357ZM441.618 25.81C441.618 22.795 443.896 21.12 448.117 21.12C450.194 21.12 452.338 21.589 454.683 22.661L456.559 15.224C453.41 13.75 448.452 13.013 444.7 13.013C435.722 13.013 428.955 17.435 428.821 26.882H422.255V36.195H428.821V64H442.02V36.195H456.157V26.882H441.618V25.81Z" fill="white"/>
<path d="M190.3 87.1L174.823 129.578L158.475 87.1H154.857L138.442 129.578L123.032 87.1H119.213L136.566 134H140.251L156.666 91.388L173.014 134H176.632L194.052 87.1H190.3ZM228.274 135.407C245.895 135.407 256.28 125.692 256.28 110.55C256.28 95.408 245.895 85.693 228.274 85.693C210.653 85.693 200.268 95.408 200.268 110.55C200.268 125.692 210.653 135.407 228.274 135.407ZM228.274 132.124C213.467 132.124 203.819 124.285 203.819 110.55C203.819 96.815 213.467 88.976 228.274 88.976C243.014 88.976 252.662 96.815 252.662 110.55C252.662 124.285 243.014 132.124 228.274 132.124ZM318.963 134L302.28 115.106C311.459 114.436 317.489 109.344 317.489 101.103C317.489 92.326 310.521 87.1 300.069 87.1H269.316V134H272.867V115.173H297.992L314.407 134H318.963ZM272.8 111.957V90.316H299.868C308.511 90.316 313.938 94.135 313.938 101.103C313.938 108.138 308.511 111.957 299.868 111.957H272.8ZM380.261 134L354.533 105.458L378.72 87.1H373.695L334.5 116.379V87.1H331.016V134H334.5V120.399L351.652 107.468L375.772 134H380.261Z" fill="white"/>
</svg>
