<svg width="17" height="29" viewBox="0 0 17 29" fill="none" xmlns="http://www.w3.org/2000/svg">
<line x1="0.5" y1="2.18557e-08" x2="0.499999" y2="29" stroke="black"/>
<line x1="8" y1="16.5" x2="17" y2="16.5" stroke="black"/>
<path d="M9 13L11.8724 5H12.9388L16 13H14.8724L14 10.5771H10.8724L10.051 13H9ZM11.1582 9.71487H13.6939L12.9133 7.49932C12.6752 6.82628 12.4983 6.27331 12.3827 5.84038C12.2874 6.35334 12.1531 6.86266 11.9796 7.36835L11.1582 9.71487Z" fill="black"/>
<path d="M9 24L11.8724 16H12.9388L16 24H14.8724L14 21.5771H10.8724L10.051 24H9ZM11.1582 20.7149H13.6939L12.9133 18.4993C12.6752 17.8263 12.4983 17.2733 12.3827 16.8404C12.2874 17.3533 12.1531 17.8627 11.9796 18.3683L11.1582 20.7149Z" fill="black"/>
</svg>
