<svg width="1021" height="393" viewBox="0 0 1021 393" fill="none" xmlns="http://www.w3.org/2000/svg">
<path d="M197.543 261.132C161.495 261.132 132.002 231.806 132.002 195.963C132.002 160.12 161.495 131.066 197.543 131.066C233.591 131.066 263.084 160.392 263.084 196.235C263.084 232.077 233.591 261.132 197.543 261.132ZM197.543 165.551C180.611 165.551 166.684 179.399 166.684 196.235C166.684 213.07 180.611 226.647 197.543 226.647C214.474 226.647 228.129 213.07 228.129 196.235C228.129 179.399 214.474 165.551 197.543 165.551Z" fill="#3E464D"/>
<path d="M547.37 132.695H530.165V259.231H547.37V132.695Z" fill="#3E464D"/>
<path d="M350.2 132.695H282.474V259.231H306.779V230.176H350.2C377.235 230.176 399.083 208.182 399.083 181.571C399.083 154.961 376.962 132.695 350.2 132.695ZM350.2 206.01H306.779V156.862H350.2C363.854 156.862 375.051 167.995 375.051 181.571C375.051 195.148 363.581 206.01 350.2 206.01Z" fill="#3E464D"/>
<path d="M502.856 132.695H412.737V153.603H447.419V259.502H468.174V153.603H502.856V132.695Z" fill="#3E464D"/>
<path d="M761.198 259.502L775.126 232.349H863.334L877.261 259.502H889.004L823.463 132.966H814.724L749.182 259.502H761.198ZM819.366 147.086L858.145 222.03H780.588L819.366 147.086Z" fill="#3E464D"/>
<path d="M659.609 259.502L706.581 156.59V259.502H720.508V132.695H702.211L650.87 244.839L599.53 132.695H581.233V259.502H595.16V156.59L642.405 259.502H659.609Z" fill="#3E464D"/>
<path d="M66.5413 131.066C30.4936 131.066 1 101.74 1 65.8972C1 30.0544 30.4936 1 66.5413 1C102.589 1 132.083 30.3259 132.083 66.1687C132.083 102.012 102.589 131.066 66.5413 131.066ZM66.5413 35.4851C49.6098 35.4851 35.6823 49.3335 35.6823 66.1687C35.6823 83.004 49.6098 96.5808 66.5413 96.5808C83.4728 96.5808 97.1273 83.004 97.1273 66.1687C97.1273 49.3335 83.4728 35.4851 66.5413 35.4851Z" fill="white"/>
<path d="M954.545 391.198C918.498 391.198 889.004 361.872 889.004 326.029C889.004 290.186 918.498 261.132 954.545 261.132C990.593 261.132 1020.09 290.458 1020.09 326.301C1020.09 362.143 990.593 391.198 954.545 391.198ZM954.545 295.617C937.614 295.617 923.686 309.465 923.686 326.301C923.686 343.136 937.614 356.713 954.545 356.713C971.477 356.713 985.131 343.136 985.131 326.301C985.131 309.465 971.477 295.617 954.545 295.617Z" fill="white"/>
<line x1="1" y1="260.632" x2="1019.07" y2="260.632" stroke="#ADADAD"/>
<line x1="1" y1="130.566" x2="1019.07" y2="130.566" stroke="#ADADAD"/>
<line x1="1" y1="0.5" x2="1019.07" y2="0.5" stroke="#ADADAD"/>
<line x1="1" y1="390.698" x2="1019.07" y2="390.698" stroke="#ADADAD"/>
<line x1="888.504" y1="392.134" x2="888.504" y2="1.00009" stroke="#ADADAD"/>
<line x1="1019.51" y1="392.134" x2="1019.51" y2="1.00009" stroke="#ADADAD"/>
<line x1="131.502" y1="392.134" x2="131.502" y2="1.00009" stroke="#ADADAD"/>
<line x1="0.5" y1="392.134" x2="0.5" y2="1.00009" stroke="#ADADAD"/>
</svg>
