<svg width="278" height="72" viewBox="0 0 278 72" fill="none" xmlns="http://www.w3.org/2000/svg">
<path d="M55.2999 63.1996H50.7V71.6996H48.2999V63.1996H43.7V61.0996H55.4V63.1996H55.2999Z" fill="#3E464D"/>
<path d="M70.1999 61.0996V71.6996H67.8V67.3996H60.5999V71.6996H58.2V61.0996H60.5999V65.2996H67.8V61.0996H70.1999Z" fill="#3E464D"/>
<path d="M85.2 69.5996V71.5996H74.3V61.0996H85.1V63.0996H76.7V65.2996H83.7V67.2996H76.7V69.5996H85.2Z" fill="#3E464D"/>
<path d="M93.2 66.3998C93.2 62.8998 95.8 60.7998 99.9 60.7998C104 60.7998 106.6 62.8998 106.6 66.3998C106.6 69.8998 104.1 71.9998 100 71.9998C95.9 71.9998 93.2 69.8998 93.2 66.3998ZM104.3 66.3998C104.3 64.0998 102.6 62.8998 100 62.8998C97.4 62.8998 95.7 64.1998 95.7 66.3998C95.7 68.5998 97.3 69.8998 100 69.8998C102.6 69.8998 104.3 68.5998 104.3 66.3998Z" fill="#3E464D"/>
<path d="M122.2 61.0996V71.6996H120.1L112.5 63.9996V71.6996H110.2V61.0996H112.8L120 68.3996V61.0996H122.2Z" fill="#3E464D"/>
<path d="M127.6 61.1L131.2 66.1L134.8 61.1H137.5L132.4 68.1V71.7H130V68L124.9 61H127.6V61.1Z" fill="#3E464D"/>
<path d="M146.6 66.2996L151.5 71.6996H148.5L145.1 67.8996L141.7 71.6996H138.9L143.8 66.2996L139 61.0996H142L145.3 64.7996L148.6 61.0996H151.4L146.6 66.2996Z" fill="#3E464D"/>
<path d="M169.5 63.1996H164.9V71.6996H162.5V63.1996H157.9V61.0996H169.6V63.1996H169.5Z" fill="#3E464D"/>
<path d="M171.4 66.3998C171.4 62.8998 174 60.7998 178.1 60.7998C182.2 60.7998 184.8 62.8998 184.8 66.3998C184.8 69.8998 182.2 71.9998 178.1 71.9998C174 71.9998 171.4 69.8998 171.4 66.3998ZM182.4 66.3998C182.4 64.0998 180.7 62.8998 178.1 62.8998C175.5 62.8998 173.8 64.1998 173.8 66.3998C173.8 68.5998 175.4 69.8998 178.1 69.8998C180.7 69.8998 182.4 68.5998 182.4 66.3998Z" fill="#3E464D"/>
<path d="M205 61.0996L201.1 71.6996H198.6L195.8 63.6996L193 71.6996H190.6L186.7 61.0996H189.2L191.8 68.8996L194.6 61.0996H196.9L199.7 68.8996L202.3 61.0996H205Z" fill="#3E464D"/>
<path d="M218.7 69.5996V71.5996H207.8V61.0996H218.6V63.0996H210.2V65.2996H217.2V67.2996H210.2V69.5996H218.7Z" fill="#3E464D"/>
<path d="M231.3 71.6996L228.3 68.0996H224.5V71.6996H222V61.0996H229.3C231.9 61.0996 233.8 62.2996 233.8 64.5996C233.8 66.3996 232.6 67.4996 230.8 67.8996L234.1 71.6996H231.3ZM229.2 66.0996C230.5 66.0996 231.4 65.7996 231.4 64.5996C231.4 63.3996 230.5 63.0996 229.2 63.0996H224.4V66.0996H229.2Z" fill="#3E464D"/>
<path d="M24 47.9C10.8 47.9 0 37.1 0 23.9C0 10.7 10.8 0 24 0C37.2 0 48 10.8 48 24C48 37.2 37.2 47.9 24 47.9ZM24 12.7C17.8 12.7 12.7 17.8 12.7 24C12.7 30.2 17.8 35.2 24 35.2C30.2 35.2 35.2 30.2 35.2 24C35.2 17.8 30.2 12.7 24 12.7Z" fill="#3E464D"/>
<path d="M152.1 0.600098H145.8V47.2001H152.1V0.600098Z" fill="#3E464D"/>
<path d="M79.9001 0.600098H55.1001V47.2001H64.0001V36.5001H79.9001C89.8001 36.5001 97.8001 28.4001 97.8001 18.6001C97.8001 8.8001 89.7001 0.600098 79.9001 0.600098ZM79.9001 27.6001H64.0001V9.5001H79.9001C84.9001 9.5001 89.0001 13.6001 89.0001 18.6001C89.0001 23.6001 84.8001 27.6001 79.9001 27.6001Z" fill="#3E464D"/>
<path d="M135.8 0.600098H102.8V8.3001H115.5V47.3001H123.1V8.3001H135.8V0.600098Z" fill="#3E464D"/>
<path d="M230.4 47.3002L235.5 37.3002H267.8L272.9 47.3002H277.2L253.2 0.700195H250L226 47.3002H230.4ZM251.7 5.9002L265.9 33.5002H237.5L251.7 5.9002Z" fill="#3E464D"/>
<path d="M193.2 47.3001L210.4 9.4001V47.3001H215.5V0.600098H208.8L190 41.9001L171.2 0.600098H164.5V47.3001H169.6V9.4001L186.9 47.3001H193.2Z" fill="#3E464D"/>
</svg>
