<svg width="278" height="72" viewBox="0 0 278 72" fill="none" xmlns="http://www.w3.org/2000/svg">
<path d="M59.0999 63.1996H54.4999V71.6996H51.9999V63.1996H47.3999V61.0996H59.0999V63.1996Z" fill="#FF3300"/>
<path d="M74 61.0996V71.6996H71.6V67.3996H64.4V71.6996H62V61.0996H64.4V65.2996H71.6V61.0996H74Z" fill="#FF3300"/>
<path d="M88.9999 69.5996V71.5996H78.0999V61.0996H88.8999V63.0996H80.4999V65.2996H87.4999V67.2996H80.4999V69.5996H88.9999Z" fill="#FF3300"/>
<path d="M107 71.6996L104 68.0996H100.2V71.6996H97.7998V61.0996H105.1C107.7 61.0996 109.6 62.2996 109.6 64.5996C109.6 66.3996 108.4 67.4996 106.6 67.8996L109.9 71.6996H107ZM104.9 66.0996C106.2 66.0996 107.1 65.7996 107.1 64.5996C107.1 63.3996 106.2 63.0996 104.9 63.0996H100.1V66.0996H104.9Z" fill="#FF3300"/>
<path d="M124 69.5996V71.5996H113.1V61.0996H123.9V63.0996H115.5V65.2996H122.5V67.2996H115.5V69.5996H124Z" fill="#FF3300"/>
<path d="M139.5 66.3996C139.5 69.6996 136.9 71.6996 132.9 71.6996H127.3V61.0996H132.9C136.9 61.0996 139.5 63.0996 139.5 66.3996ZM137 66.3996C137 64.1996 135.3 63.1996 132.7 63.1996H129.7V69.6996H132.7C135.3 69.5996 137 68.4996 137 66.3996Z" fill="#FF3300"/>
<path d="M158.3 63.1996H153.7V71.6996H151.3V63.1996H146.7V61.0996H158.4V63.1996H158.3Z" fill="#FF3300"/>
<path d="M160.1 66.3998C160.1 62.8998 162.7 60.7998 166.8 60.7998C170.9 60.7998 173.5 62.8998 173.5 66.3998C173.5 69.8998 170.9 71.9998 166.8 71.9998C162.7 71.9998 160.1 69.8998 160.1 66.3998ZM171.1 66.3998C171.1 64.0998 169.4 62.8998 166.8 62.8998C164.2 62.8998 162.5 64.1998 162.5 66.3998C162.5 68.5998 164.1 69.8998 166.8 69.8998C169.5 69.8998 171.1 68.5998 171.1 66.3998Z" fill="#FF3300"/>
<path d="M193.7 61.0996L189.8 71.6996H187.3L184.5 63.6996L181.7 71.6996H179.3L175.4 61.0996H177.9L180.5 68.8996L183.3 61.0996H185.6L188.4 68.8996L191 61.0996H193.7Z" fill="#FF3300"/>
<path d="M207.5 69.5996V71.5996H196.6V61.0996H207.4V63.0996H199V65.2996H206V67.2996H199V69.5996H207.5Z" fill="#FF3300"/>
<path d="M220.1 71.6996L217.1 68.0996H213.3V71.6996H210.9V61.0996H218.2C220.8 61.0996 222.7 62.2996 222.7 64.5996C222.7 66.3996 221.5 67.4996 219.7 67.8996L223 71.6996H220.1ZM218 66.0996C219.3 66.0996 220.2 65.7996 220.2 64.5996C220.2 63.3996 219.3 63.0996 218 63.0996H213.2V66.0996H218Z" fill="#FF3300"/>
<path d="M24 47.9C10.8 47.9 0 37.1 0 23.9C0 10.7 10.8 0 24 0C37.2 0 48 10.8 48 24C48 37.2 37.2 47.9 24 47.9ZM24 12.7C17.8 12.7 12.7 17.8 12.7 24C12.7 30.2 17.8 35.2 24 35.2C30.2 35.2 35.2 30.2 35.2 24C35.2 17.8 30.2 12.7 24 12.7Z" fill="#FF3300"/>
<path d="M152.1 0.600098H145.8V47.2001H152.1V0.600098Z" fill="#FF3300"/>
<path d="M79.9001 0.600098H55.1001V47.2001H64.0001V36.5001H79.9001C89.8001 36.5001 97.8001 28.4001 97.8001 18.6001C97.8001 8.8001 89.7001 0.600098 79.9001 0.600098ZM79.9001 27.6001H64.0001V9.5001H79.9001C84.9001 9.5001 89.0001 13.6001 89.0001 18.6001C89.0001 23.6001 84.8001 27.6001 79.9001 27.6001Z" fill="#FF3300"/>
<path d="M135.8 0.600098H102.8V8.3001H115.5V47.3001H123.1V8.3001H135.8V0.600098Z" fill="#FF3300"/>
<path d="M230.4 47.3002L235.5 37.3002H267.8L272.9 47.3002H277.2L253.2 0.700195H250L226 47.3002H230.4ZM251.7 5.9002L265.9 33.5002H237.5L251.7 5.9002Z" fill="#FF3300"/>
<path d="M193.2 47.3001L210.4 9.4001V47.3001H215.5V0.600098H208.8L190 41.9001L171.2 0.600098H164.5V47.3001H169.6V9.4001L186.9 47.3001H193.2Z" fill="#FF3300"/>
</svg>
