<svg width="390" height="35" viewBox="0 0 390 35" fill="none" xmlns="http://www.w3.org/2000/svg">
<path d="M23.3441 11.0113H13.9666V27.7248H9.17803V11.0113H0V6.88208H23.3441V11.0113Z" fill="#3E464D"/>
<path d="M53.0731 6.88208V27.7248H48.2845V19.2697H33.9189V27.7248H29.1304V6.88208H33.9189V15.1405H48.2845V6.88208H53.0731Z" fill="#3E464D"/>
<path d="M83.0016 23.7922V27.7248H61.2537V6.88208H82.8021V10.8147H66.0422V15.1405H80.0088V19.0731H66.0422V23.5956H83.0016V23.7922Z" fill="#3E464D"/>
<path d="M98.9633 17.3035C98.9633 10.4215 104.151 6.29224 112.331 6.29224C120.512 6.29224 125.699 10.4215 125.699 17.3035C125.699 24.1855 120.512 28.3147 112.331 28.3147C104.151 28.5113 98.9633 24.3821 98.9633 17.3035ZM120.911 17.3035C120.911 12.781 117.519 10.4215 112.331 10.4215C107.144 10.4215 103.752 12.9776 103.752 17.3035C103.752 21.6293 106.944 24.1855 112.331 24.1855C117.718 24.3821 120.911 21.8259 120.911 17.3035Z" fill="#3E464D"/>
<path d="M156.825 6.88208V27.7248H152.635L137.471 12.5843V27.7248H132.882V6.88208H138.07L152.435 21.236V6.88208H156.825Z" fill="#3E464D"/>
<path d="M167.599 6.88208L174.781 16.7135L181.964 6.88208H187.351L177.176 20.6461V27.7248H172.387V20.6461L162.211 6.88208H167.599Z" fill="#3E464D"/>
<path d="M205.309 17.3034L215.086 27.9214H209.1L202.316 20.4495L195.532 27.7248H189.946L199.722 17.1068L190.145 6.88208H196.131L202.715 14.1574L209.299 6.88208H214.886L205.309 17.3034Z" fill="#3E464D"/>
<path d="M251.198 11.0113H242.02V27.7248H237.232V11.0113H228.054V6.88208H251.398V11.0113H251.198Z" fill="#3E464D"/>
<path d="M331.008 6.88208L323.226 27.7248H318.238L312.652 11.9944L307.065 27.7248H302.277L294.495 6.88208H299.483L304.671 22.2192L310.258 6.88208H314.847L320.433 22.2192L325.621 6.88208H331.008Z" fill="#3E464D"/>
<path d="M358.542 23.7922V27.7248H336.794V6.88208H358.342V10.8147H341.582V15.1405H355.549V19.0731H341.582V23.5956H358.542V23.7922Z" fill="#3E464D"/>
<path d="M383.682 27.7248L377.696 20.6461H370.114V27.7248H365.126V6.88208H379.691C384.879 6.88208 388.67 9.24163 388.67 13.7641C388.67 17.3034 386.275 19.4663 382.684 20.2529L389.268 27.7248H383.682ZM379.492 16.7135C382.085 16.7135 383.881 16.1237 383.881 13.7641C383.881 11.4046 382.085 10.8147 379.492 10.8147H369.915V16.7135H379.492Z" fill="#3E464D"/>
<path d="M272.947 35C263.17 35 255.189 27.1348 255.189 17.5C255.189 7.86517 263.17 0 272.947 0C282.723 0 290.704 7.86517 290.704 17.5C290.704 27.1348 282.923 35 272.947 35ZM272.947 9.04494C268.358 9.04494 264.567 12.7809 264.567 17.3034C264.567 21.8258 268.358 25.5618 272.947 25.5618C277.536 25.5618 281.326 21.8258 281.326 17.3034C281.326 12.7809 277.735 9.04494 272.947 9.04494Z" fill="#3E464D"/>
</svg>
