<svg width="351" height="35" viewBox="0 0 351 35" fill="none" xmlns="http://www.w3.org/2000/svg">
<path d="M22.7915 11.0111H13.6359V27.7245H8.96076V11.0111H0V6.88184H22.7915V11.0111Z" fill="#FF3300"/>
<path d="M51.8167 6.88184V27.7245H47.1415V19.2695H33.116V27.7245H28.4408V6.88184H33.116V15.1403H47.1415V6.88184H51.8167Z" fill="#FF3300"/>
<path d="M81.0368 23.792V27.7245H59.8037V6.88184H80.842V10.8144H64.4789V15.1403H78.1148V19.0729H64.4789V23.5953H81.0368V23.792Z" fill="#FF3300"/>
<path d="M116.1 27.7245L110.256 20.6459H102.854V27.7245H98.1787V6.88184H112.399C117.464 6.88184 121.165 9.24139 121.165 13.7639C121.165 17.3032 118.827 19.4661 115.321 20.2526L121.749 27.7245H116.1ZM112.009 16.7133C114.542 16.7133 116.295 16.1234 116.295 13.7639C116.295 11.4043 114.542 10.8144 112.009 10.8144H102.659V16.7133H112.009Z" fill="#FF3300"/>
<path d="M149.022 23.792V27.7245H127.788V6.88184H148.827V10.8144H132.464V15.1403H146.1V19.0729H132.464V23.5953H149.022V23.792Z" fill="#FF3300"/>
<path d="M179.215 17.3032C179.215 23.792 174.15 27.7245 166.358 27.7245H155.449V6.88184H166.358C174.345 6.88184 179.215 10.8144 179.215 17.3032ZM174.54 17.3032C174.54 12.9773 171.228 11.0111 166.163 11.0111H160.319V23.792H166.163C171.033 23.792 174.54 21.629 174.54 17.3032Z" fill="#FF3300"/>
<path d="M216.032 11.0111H207.071V27.7245H202.396V11.0111H193.435V6.88184H216.227V11.0111H216.032Z" fill="#FF3300"/>
<path d="M293.951 6.88184L286.354 27.7245H281.484L276.03 11.9942L270.575 27.7245H265.9L258.303 6.88184H263.173L268.238 22.2189L273.692 6.88184H278.173L283.627 22.2189L288.692 6.88184H293.951Z" fill="#FF3300"/>
<path d="M320.834 23.792V27.7245H299.601V6.88184H320.639V10.8144H304.276V15.1403H317.912V19.0729H304.276V23.5953H320.834V23.792Z" fill="#FF3300"/>
<path d="M345.184 27.7245L339.34 20.6459H331.938V27.7245H327.263V6.88184H341.483C346.548 6.88184 350.249 9.24139 350.249 13.7639C350.249 17.3032 347.911 19.4661 344.405 20.2526L350.833 27.7245H345.184ZM341.093 16.7133C343.626 16.7133 345.379 16.1234 345.379 13.7639C345.379 11.4043 343.626 10.8144 341.093 10.8144H331.743V16.7133H341.093Z" fill="#FF3300"/>
<path d="M237.265 35C227.72 35 219.928 27.1348 219.928 17.5C219.928 7.86517 227.72 0 237.265 0C246.81 0 254.602 7.86517 254.602 17.5C254.602 27.1348 246.81 35 237.265 35ZM237.265 9.04494C232.785 9.04494 229.084 12.7809 229.084 17.3034C229.084 21.8258 232.785 25.5618 237.265 25.5618C241.746 25.5618 245.447 21.8258 245.447 17.3034C245.447 12.7809 241.746 9.04494 237.265 9.04494Z" fill="#FF3300"/>
</svg>
