<svg width="278" height="72" viewBox="0 0 278 72" fill="none" xmlns="http://www.w3.org/2000/svg">
<path d="M24 47.9C10.8 47.9 0 37.1 0 23.9C0 10.7 10.8 0 24 0C37.2 0 48 10.8 48 24C48 37.2 37.2 47.9 24 47.9ZM24 12.7C17.8 12.7 12.7 17.8 12.7 24C12.7 30.2 17.8 35.2 24 35.2C30.2 35.2 35.2 30.2 35.2 24C35.2 17.8 30.2 12.7 24 12.7Z" fill="#EBEBEC"/>
<path d="M152.1 0.600098H145.8V47.2001H152.1V0.600098Z" fill="#EBEBEC"/>
<path d="M79.9001 0.600098H55.1001V47.2001H64.0001V36.5001H79.9001C89.8001 36.5001 97.8001 28.4001 97.8001 18.6001C97.8001 8.8001 89.7001 0.600098 79.9001 0.600098ZM79.9001 27.6001H64.0001V9.5001H79.9001C84.9001 9.5001 89.0001 13.6001 89.0001 18.6001C89.0001 23.6001 84.8001 27.6001 79.9001 27.6001Z" fill="#EBEBEC"/>
<path d="M135.8 0.600098H102.8V8.3001H115.5V47.3001H123.1V8.3001H135.8V0.600098Z" fill="#EBEBEC"/>
<path d="M230.4 47.3002L235.5 37.3002H267.8L272.9 47.3002H277.2L253.2 0.700195H250L226 47.3002H230.4ZM251.7 5.9002L265.9 33.5002H237.5L251.7 5.9002Z" fill="#EBEBEC"/>
<path d="M193.2 47.3001L210.4 9.4001V47.3001H215.5V0.600098H208.8L190 41.9001L171.2 0.600098H164.5V47.3001H169.6V9.4001L186.9 47.3001H193.2Z" fill="#EBEBEC"/>
<path d="M46.7999 63.1996H42.2V71.6996H39.7999V63.1996H35.2V61.0996H46.9V63.1996H46.7999Z" fill="#EBEBEC"/>
<path d="M61.8 61.0996V71.6996H59.4001V67.3996H52.2001V71.6996H49.8V61.0996H52.2001V65.2996H59.4001V61.0996H61.8Z" fill="#EBEBEC"/>
<path d="M76.7 69.5996V71.5996H65.8V61.0996H76.6V63.0996H68.2V65.2996H75.2V67.2996H68.2V69.5996H76.7Z" fill="#EBEBEC"/>
<path d="M102.1 61.0996L98.2 71.6996H95.7L92.9 63.6996L90.1 71.6996H87.7L83.8 61.0996H86.3L88.9 68.8996L91.7 61.0996H94L96.8 68.8996L99.4 61.0996H102.1Z" fill="#EBEBEC"/>
<path d="M117 61.0996V71.6996H114.6V67.3996H107.4V71.6996H105V61.0996H107.4V65.2996H114.6V61.0996H117Z" fill="#EBEBEC"/>
<path d="M121.1 71.6996V61.0996H123.5V71.6996H121.1Z" fill="#EBEBEC"/>
<path d="M138 63.1996H133.4V71.6996H131V63.1996H126.4V61.0996H138V63.1996Z" fill="#EBEBEC"/>
<path d="M151.8 69.5996V71.5996H140.9V61.0996H151.7V63.0996H143.3V65.2996H150.3V67.2996H143.3V69.5996H151.8Z" fill="#EBEBEC"/>
<path d="M170.6 63.1996H166V71.6996H163.6V63.1996H159V61.0996H170.7V63.1996H170.6Z" fill="#EBEBEC"/>
<path d="M172.4 66.3998C172.4 62.8998 175 60.7998 179.1 60.7998C183.2 60.7998 185.8 62.8998 185.8 66.3998C185.8 69.8998 183.2 71.9998 179.1 71.9998C175 71.9998 172.4 69.8998 172.4 66.3998ZM183.4 66.3998C183.4 64.0998 181.7 62.8998 179.1 62.8998C176.5 62.8998 174.8 64.1998 174.8 66.3998C174.8 68.5998 176.4 69.8998 179.1 69.8998C181.8 69.8998 183.4 68.5998 183.4 66.3998Z" fill="#EBEBEC"/>
<path d="M206 61.0996L202.1 71.6996H199.6L196.8 63.6996L194 71.6996H191.6L187.7 61.0996H190.2L192.8 68.8996L195.6 61.0996H197.9L200.7 68.8996L203.3 61.0996H206Z" fill="#EBEBEC"/>
<path d="M219.8 69.5996V71.5996H208.9V61.0996H219.7V63.0996H211.3V65.2996H218.3V67.2996H211.3V69.5996H219.8Z" fill="#EBEBEC"/>
<path d="M232.4 71.6996L229.4 68.0996H225.6V71.6996H223.2V61.0996H230.5C233.1 61.0996 235 62.2996 235 64.5996C235 66.3996 233.8 67.4996 232 67.8996L235.3 71.6996H232.4ZM230.3 66.0996C231.6 66.0996 232.5 65.7996 232.5 64.5996C232.5 63.3996 231.6 63.0996 230.3 63.0996H225.5V66.0996H230.3Z" fill="#EBEBEC"/>
</svg>
