<svg width="407" height="35" viewBox="0 0 407 35" fill="none" xmlns="http://www.w3.org/2000/svg">
<path d="M23.1634 11.21H13.9536V27.8785H9.15023V11.21H0V7.12109H23.1634V11.21Z" fill="#EBEBEC"/>
<path d="M52.8372 7.12109V27.8785H48.0338V19.4269H33.6833V27.8785H28.8799V7.12109H33.6833V15.2793H48.0338V7.12109H52.8372Z" fill="#EBEBEC"/>
<path d="M82.5506 23.907V27.8785H60.8759V7.12109H82.2529V11.0926H65.6594V15.3575H79.5137V19.329H65.6594V23.8874H82.5506V23.907Z" fill="#EBEBEC"/>
<path d="M132.887 7.12109L125.185 27.8785H120.283L114.745 12.2273L109.148 27.8785H104.305L96.6034 7.12109H101.665L106.845 22.4788L112.462 7.12109H117.127L122.724 22.4788L127.925 7.12109H132.887Z" fill="#EBEBEC"/>
<path d="M162.521 7.12109V27.8785H157.717V19.4269H143.367V27.8785H138.544V7.12109H143.347V15.2793H157.698V7.12109H162.521Z" fill="#EBEBEC"/>
<path d="M170.56 27.8785V7.12109H175.363V27.8785H170.56Z" fill="#EBEBEC"/>
<path d="M204.262 11.21H195.053V27.8785H190.249V11.21H181.099V7.12109H204.262V11.21Z" fill="#EBEBEC"/>
<path d="M231.654 23.907V27.8785H209.979V7.12109H231.356V11.0926H214.762V15.3575H228.637V19.329H214.762V23.8874H231.654V23.907Z" fill="#EBEBEC"/>
<path d="M268.87 11.21H259.66V27.8785H254.857V11.21H245.707V7.12109H268.87V11.21Z" fill="#EBEBEC"/>
<path d="M348.284 7.12109L340.583 27.8785H335.68L330.143 12.2273L324.545 27.8785H319.702L312.021 7.12109H317.082L322.263 22.4788L327.88 7.12109H332.544L338.142 22.4788L343.342 7.12109H348.284Z" fill="#EBEBEC"/>
<path d="M375.636 23.907V27.8785H353.961V7.12109H375.338V11.0926H358.744V15.3575H372.619V19.329H358.744V23.8874H375.636V23.907Z" fill="#EBEBEC"/>
<path d="M400.605 27.8785L394.551 20.8159H386.949V27.8785H382.166V7.12109H396.695C401.836 7.12109 405.706 9.46877 405.706 13.9685C405.706 17.49 403.325 19.6812 399.851 20.4833L406.342 27.8589H400.605V27.8785ZM396.437 16.9031C398.958 16.9031 400.824 16.3162 400.824 14.0076C400.824 11.6991 398.958 11.1121 396.437 11.1121H386.93V16.9227H396.437V16.9031Z" fill="#EBEBEC"/>
<path d="M290.525 35C280.739 35 272.76 27.1548 272.76 17.4902C272.76 7.8256 280.739 0 290.525 0C300.31 0 308.289 7.84516 308.289 17.5098C308.289 27.1744 300.31 35 290.525 35ZM290.525 9.27334C285.92 9.27334 282.168 12.9709 282.168 17.5098C282.168 22.0486 285.92 25.7462 290.525 25.7462C295.13 25.7462 298.881 22.0486 298.881 17.5098C298.881 12.9709 295.13 9.27334 290.525 9.27334Z" fill="#EBEBEC"/>
</svg>
