<svg width="320" height="55" viewBox="0 0 320 55" fill="none" xmlns="http://www.w3.org/2000/svg">
<path d="M27.7056 54.9495C12.4675 54.9495 0 42.56 0 27.4174C0 12.2747 12.4675 0 27.7056 0C42.9437 0 55.4113 12.3894 55.4113 27.5321C55.4113 42.6748 42.9437 54.9495 27.7056 54.9495ZM27.7056 14.5691C20.5483 14.5691 14.6609 20.4196 14.6609 27.5321C14.6609 34.6446 20.5483 40.3804 27.7056 40.3804C34.8629 40.3804 40.6349 34.6446 40.6349 27.5321C40.6349 20.4196 34.8629 14.5691 27.7056 14.5691Z" fill="#3E464D"/>
<path d="M175.584 0.688477H168.312V54.1467H175.584V0.688477Z" fill="#3E464D"/>
<path d="M92.2366 0.688477H63.6075V54.1467H73.8817V41.8719H92.2366C103.665 41.8719 112.9 32.5798 112.9 21.3376C112.9 10.0953 103.55 0.688477 92.2366 0.688477ZM92.2366 31.6621H73.8817V10.8983H92.2366C98.0086 10.8983 102.742 15.6017 102.742 21.3376C102.742 27.0734 97.8932 31.6621 92.2366 31.6621Z" fill="#3E464D"/>
<path d="M156.768 0.688477H118.672V9.52169H133.333V54.2614H142.107V9.52169H156.768V0.688477Z" fill="#3E464D"/>
<path d="M265.974 54.2614L271.861 42.7897H309.149L315.036 54.2614H320L292.294 0.803223H288.6L260.895 54.2614H265.974ZM290.563 6.76851L306.955 38.4304H274.17L290.563 6.76851Z" fill="#3E464D"/>
<path d="M223.03 54.2614L242.886 10.7836V54.2614H248.773V0.688477H241.039L219.336 48.0666L197.633 0.688477H189.899V54.2614H195.786V10.7836L215.758 54.2614H223.03Z" fill="#3E464D"/>
</svg>
